<?xml version="1.0" encoding="UTF-8" standalone="no"?>
<svg width="30px" height="30px" viewBox="0 0 30 30" version="1.1" xmlns="http://www.w3.org/2000/svg" xmlns:xlink="http://www.w3.org/1999/xlink" xmlns:sketch="http://www.bohemiancoding.com/sketch/ns">
    <!-- Generator: Sketch 3.5.1 (25234) - http://www.bohemiancoding.com/sketch -->
    <title>Group 2</title>
    <desc>Created with Sketch.</desc>
    <defs></defs>
    <g id="Page-1" stroke="none" stroke-width="1" fill="none" fill-rule="evenodd" sketch:type="MSPage">
        <g id="Armis---Create-Account-Copy" sketch:type="MSArtboardGroup" transform="translate(-873.000000, -115.000000)">
            <g id="Group-2" sketch:type="MSLayerGroup" transform="translate(873.000000, 115.000000)">
                <circle id="Oval-7-Copy-2" fill="#89B4E5" sketch:type="MSShapeGroup" cx="14.7960526" cy="15.3881579" r="14.5065789"></circle>
                <ellipse id="Oval" fill="#FFFFFF" sketch:type="MSShapeGroup" cx="9.90945019" cy="15.6933198" rx="1.30576128" ry="1.30809717"></ellipse>
                <path d="M14.7978712,23.592915 C14.8560667,23.592915 14.9142622,23.5947368 14.9724577,23.5947368 C21.6176551,23.5947368 27.0061936,20.337247 27.0061936,16.3218623 C27.0061936,13.0078947 23.3362406,10.2131579 18.3259727,9.33684211 C18.2932378,8.22186235 16.9983882,7.30364372 15.2979887,7.12145749 L14.2922979,7.12145749 C12.5937171,7.30364372 11.2988675,8.22186235 11.2661325,9.33502024 C6.25404605,10.2131579 2.58591165,13.0078947 2.58591165,16.3218623 C2.58591165,20.337247 7.97445019,23.5947368 14.6214662,23.5947368 C14.6796617,23.5947368 14.7378571,23.592915 14.7978712,23.592915 Z M19.6826551,13.2265182 C21.0429746,13.2265182 22.1450517,14.3305668 22.1450517,15.6933198 C22.1450517,17.0560729 21.0429746,18.1601215 19.6826551,18.1601215 C18.3223355,18.1601215 17.2202585,17.0560729 17.2202585,15.6933198 C17.2202585,14.3305668 18.3205169,13.2265182 19.6826551,13.2265182 L19.6826551,13.2265182 Z M9.90945019,13.2265182 C11.2697697,13.2265182 12.3718468,14.3305668 12.3718468,15.6933198 C12.3718468,17.0560729 11.2697697,18.1601215 9.90945019,18.1601215 C8.54731203,18.1601215 7.44705357,17.0560729 7.44705357,15.6933198 C7.44705357,14.3305668 8.54913064,13.2265182 9.90945019,13.2265182 L9.90945019,13.2265182 Z" id="Shape" fill="#FFFFFF" sketch:type="MSShapeGroup"></path>
                <ellipse id="Oval" fill="#FFFFFF" sketch:type="MSShapeGroup" cx="19.6826551" cy="15.6933198" rx="1.30576128" ry="1.30809717"></ellipse>
            </g>
        </g>
    </g>
</svg>